<svg xmlns="http://www.w3.org/2000/svg" xml:space="preserve" width="1472" height="92" overflow="scroll" viewBox="0 0 1472 92"><g fill-rule="evenodd" transform="translate(-.015)"><circle cx="46" cy="46" r="46" fill="#ffbe00"/><path d="M54.291 71.658V20.86h-8.85c-2.302 1.8-7.77 5.181-13.671 7.987l-3.094 1.44 3.454 7.77 2.662-1.367c1.87-.935 6.98-3.597 8.707-4.964v39.933z"/></g><g fill-rule="evenodd" style="overflow:scroll" transform="translate(91.987)"><circle cx="46" cy="46" r="46" fill="#0055c8"/><path fill="#fff" d="M62.608 71.658v-8.49H41.67c.648-2.95 5.756-7.195 8.347-9.57 6.116-5.54 11.656-9.497 11.656-18.204 0-10.362-8.42-15.398-17.34-15.398-6.836 0-11.37 2.015-16.262 6.26l5.324 7.052c1.224-1.368 4.317-4.606 8.779-4.606 5.54 0 8.418 3.526 8.418 7.915 0 4.893-3.67 8.42-7.051 11.368-6.764 5.9-12.592 11.081-13.887 16.982v6.691z"/></g><g fill-rule="evenodd" style="overflow:scroll" transform="translate(183.99)"><circle cx="46" cy="46" r="46" fill="#6e6e00"/><path fill="#fff" d="M62.89 56.62c0-7.123-4.244-11.297-9.857-12.376v-.143c5.397-2.015 8.203-6.044 8.203-11.297 0-6.764-5.9-12.808-16.261-12.808-5.972 0-10.865 1.654-15.254 4.533l3.526 7.483c1.654-1.439 4.749-3.67 9.425-3.67 5.325 0 7.771 2.806 7.771 6.045 0 3.885-3.093 6.332-8.058 6.332H37.06v8.418h5.252c5.181 0 9.643 1.87 9.643 7.699 0 4.317-3.67 7.483-9.57 7.483-4.318 0-7.843-1.655-10.002-3.31l-3.885 7.844c4.101 2.301 8.059 3.813 14.606 3.813 11.8 0 19.787-7.124 19.787-16.046"/></g><g fill-rule="evenodd" style="overflow:scroll" transform="translate(275.991)"><circle cx="46" cy="46" r="46" fill="#82c8e6"/><path d="M63.205 53.107c0-3.537-1.59-7.54-5.43-7.54-1.864 0-2.988.987-3.975 2.413v-7.65h-3.866V60.62h3.728v-.768c.74.686 2.03 1.125 3.127 1.125 4.689 0 6.416-4.58 6.416-7.87m-4.031.55c0 2-.548 4.578-3.016 4.578-1.756 0-2.358-.905-2.358-1.919v-4.798c0-.851.082-1.262.74-1.893a2.5 2.5 0 0 1 1.782-.74c2.44 0 2.852 2.797 2.852 4.771M70.741 42.084c0-1.179-.823-2.03-2.138-2.03-1.317 0-2.166.851-2.166 2.03 0 1.18.85 2.03 2.166 2.03s2.138-.85 2.138-2.03m-.22 18.537V45.978h-3.865v14.643zM84.299 56.233c0-2.22-1.29-3.427-3.263-4.168l-1.782-.658c-.933-.329-1.535-.685-1.535-1.453 0-.878.74-1.398 2.028-1.398.933 0 2.112.329 2.962.878l1.179-2.826c-.768-.383-2.11-.959-3.949-.959-3.427 0-5.758 2.166-5.758 4.936 0 1.728.85 3.071 2.934 3.866l1.727.658c.768.302 1.865.604 1.865 1.619 0 1.15-1.234 1.48-2.248 1.48-1.152 0-2.496-.438-3.428-1.097l-1.18 2.88c.823.492 2.47 1.123 4.305 1.123 3.84 0 6.143-2.029 6.143-4.88M43.44 56.127c0-6.545-3.9-10.38-9.057-11.371v-.132c4.959-1.851 7.538-5.554 7.538-10.38 0-6.215-5.422-11.769-14.943-11.769-5.487 0-9.983 1.52-14.015 4.166l3.239 6.875c1.52-1.322 4.364-3.371 8.661-3.371 4.893 0 7.14 2.578 7.14 5.553 0 3.57-2.842 5.818-7.404 5.818h-4.893v7.735h4.826c4.76 0 8.86 1.72 8.86 7.075 0 3.967-3.372 6.876-8.793 6.876-3.967 0-7.207-1.521-9.19-3.042l-3.57 7.207c3.768 2.115 7.404 3.504 13.42 3.504 10.843 0 18.182-6.546 18.182-14.744"/></g><g fill-rule="evenodd" style="overflow:scroll" transform="translate(367.993)"><circle cx="46" cy="46" r="46" fill="#a0006e"/><path fill="#fff" d="M62.446 61.081v-7.914h-6.26V20.859H43.235L23.52 51.655v9.426H46.4v10.577h9.787V61.081ZM46.4 53.167H32.226l10.36-16.262c2.016-3.166 3.455-6.26 3.67-7.123h.144z"/></g><g fill-rule="evenodd" style="overflow:scroll" transform="translate(459.995)"><circle cx="46" cy="46" r="46" fill="#ff5a00"/><path d="M63.29 55.446c0-7.627-5.612-15.326-19.5-16.046l-1.439-.07.72-9.715h18.276v-8.419H34.652l-2.015 26.408 7.915.07c9.354.073 11.8 5.11 11.8 8.78 0 5.972-4.964 8.202-8.922 8.202-4.317 0-7.195-1.583-9.641-3.238l-3.742 7.915c3.957 2.23 8.562 3.67 13.959 3.67 11.584 0 19.283-7.843 19.283-17.557"/></g><g fill-rule="evenodd" style="overflow:scroll" transform="translate(551.997)"><circle cx="46" cy="46" r="46" fill="#82dc73"/><path d="M63.452 55.59c0-9.496-6.764-15.038-15.038-15.038-5.396 0-8.634 1.944-10.36 3.454.647-10.217 5.9-15.326 12.879-15.326 2.878 0 5.468.648 6.836 1.223l1.583-8.634c-2.087-.504-4.677-.863-7.556-.863-15.973 0-24.104 12.088-24.104 29.717 0 13.455 4.892 23.024 18.564 23.024 10.432 0 17.196-7.41 17.196-17.557m-10.144 1.08c0 4.389-2.519 8.49-7.412 8.49-5.037 0-7.771-4.678-7.771-9.498 0-1.51 0-3.453.576-4.316 1.007-1.584 3.526-2.807 6.62-2.807 4.892 0 7.987 3.38 7.987 8.13"/></g><g fill-rule="evenodd" style="overflow:scroll" transform="translate(643.999)"><circle cx="46" cy="46" r="46" fill="#ff82b4"/><path d="M64.83 29.47v-8.274H29.286v8.49h24.679L41.589 52.713c-4.46 8.274-6.26 12.592-6.26 19.283h11.585c0-7.986 6.764-23.169 17.916-42.524"/></g><g fill-rule="evenodd" style="overflow:scroll" transform="translate(736.001)"><circle cx="46" cy="46" r="46" fill="#82dc73"/><path d="M63.53 53.107c0-3.537-1.59-7.54-5.428-7.54-1.866 0-2.99.987-3.977 2.413v-7.65h-3.867V60.62h3.73v-.768c.74.686 2.03 1.125 3.125 1.125 4.69 0 6.417-4.58 6.417-7.87m-4.031.55c0 2-.548 4.578-3.017 4.578-1.753 0-2.357-.905-2.357-1.919v-4.798c0-.851.082-1.262.74-1.893a2.5 2.5 0 0 1 1.782-.74c2.44 0 2.852 2.797 2.852 4.771M71.066 42.084c0-1.179-.822-2.03-2.138-2.03-1.317 0-2.166.851-2.166 2.03 0 1.18.85 2.03 2.166 2.03s2.138-.85 2.138-2.03m-.218 18.537V45.978H66.98v14.643zM45.32 30.872Q28.86 59.5 28.858 69.945H18.214q0-4.363 1.323-8.33 1.123-3.306 4.429-9.388L35.337 31.07H12.661v-7.8h32.66zM84.624 56.233c0-2.22-1.288-3.427-3.263-4.168l-1.783-.658c-.932-.329-1.535-.685-1.535-1.453 0-.878.74-1.398 2.03-1.398.932 0 2.11.329 2.96.878l1.18-2.826a8.65 8.65 0 0 0-3.95-.959c-3.427 0-5.757 2.166-5.757 4.936 0 1.728.85 3.071 2.933 3.866l1.729.658c.768.302 1.864.604 1.864 1.619 0 1.15-1.234 1.48-2.249 1.48-1.151 0-2.495-.438-3.428-1.097l-1.178 2.88c.823.492 2.468 1.123 4.305 1.123 3.838 0 6.142-2.029 6.142-4.88"/></g><g fill-rule="evenodd" style="overflow:scroll" transform="translate(828.003)"><circle cx="46" cy="46" r="46" fill="#d282be"/><path d="M63.708 57.46c0-6.69-4.102-10.72-8.777-12.95 4.748-2.88 7.194-6.548 7.194-11.297 0-8.707-7.411-13.096-16.333-13.096-8.707 0-16.334 5.828-16.334 14.247 0 5.252 2.734 8.347 7.124 11.08-4.892 2.519-8.706 6.476-8.706 13.24 0 7.699 6.403 14.463 17.7 14.463 10.433 0 18.132-6.044 18.132-15.686m-11.297-23.6c0 3.166-2.877 6.117-5.539 7.34-3.238-1.368-7.412-3.598-7.412-7.771 0-3.527 2.519-5.973 6.477-5.973 4.172 0 6.474 2.879 6.474 6.404m.792 24.392c0 4.03-2.662 7.412-7.483 7.412-4.893 0-7.627-3.958-7.627-8.132 0-3.957 3.31-7.266 6.62-8.561 4.317 2.158 8.49 4.676 8.49 9.281"/></g><g fill-rule="evenodd" style="overflow:scroll" transform="translate(920.005)"><circle cx="46" cy="46" r="46" fill="#d2d200"/><path d="M27.776 37.674c0 9.498 6.764 15.038 15.038 15.038 5.397 0 8.634-1.942 10.362-3.454-.649 10.218-5.9 15.326-12.88 15.326-2.879 0-5.468-.647-6.836-1.223l-1.583 8.634c2.087.504 4.677.864 7.555.864 15.974 0 24.105-12.088 24.105-29.716 0-13.456-4.893-23.026-18.564-23.026-10.433 0-17.197 7.411-17.197 17.557m10.145-1.08c0-4.389 2.519-8.49 7.412-8.49 5.036 0 7.77 4.677 7.77 9.498 0 1.511 0 3.454-.576 4.317-1.006 1.583-3.525 2.807-6.619 2.807-4.893 0-7.987-3.382-7.987-8.131"/></g><g fill-rule="evenodd" style="overflow:scroll" transform="translate(1012.007)"><circle cx="46" cy="46" r="46" fill="#dc9600"/><path d="M78.93 46.397c0-11.729-3.022-26.551-18.348-26.551-15.327 0-18.636 14.822-18.636 26.55s3.022 26.551 18.348 26.551S78.93 58.125 78.93 46.397m-11.01 0c0 5.037-.287 18.06-7.482 18.06s-7.555-12.952-7.555-18.06c0-5.181.216-17.989 7.555-17.989 7.267 0 7.483 12.664 7.483 17.989M35.512 71.652V20.853h-8.85c-2.303 1.8-7.771 5.181-13.671 7.987l-3.094 1.44 3.454 7.77 2.662-1.367c1.87-.936 6.98-3.598 8.706-4.965v39.934z"/></g><g fill-rule="evenodd" style="overflow:scroll" transform="translate(1104.009)"><circle cx="46" cy="46" r="46" fill="#6e491e"/><path fill="#fff" d="M38.59 71.652V20.853h-8.85c-2.302 1.8-7.77 5.181-13.67 7.987l-3.095 1.44 3.454 7.77 2.662-1.367c1.87-.936 6.98-3.598 8.706-4.965v39.934zM69.331 71.652V20.853h-8.85c-2.303 1.8-7.771 5.181-13.671 7.987l-3.095 1.44 3.455 7.77 2.662-1.367c1.87-.936 6.979-3.598 8.705-4.965v39.934z"/></g><g fill-rule="evenodd" style="overflow:scroll" transform="translate(1196.011)"><circle cx="46" cy="46" r="46" fill="#00643c"/><path fill="#fff" d="M36.14 71.652V20.853h-8.85c-2.303 1.8-7.771 5.181-13.672 7.987l-3.094 1.44 3.454 7.77 2.663-1.367c1.87-.936 6.979-3.598 8.706-4.965v39.934zM77.543 71.652v-8.49H56.604c.648-2.95 5.756-7.196 8.347-9.57 6.115-5.54 11.656-9.498 11.656-18.204 0-10.362-8.418-15.398-17.34-15.398-6.835 0-11.369 2.015-16.262 6.26l5.325 7.05c1.223-1.366 4.317-4.604 8.777-4.604 5.541 0 8.42 3.526 8.42 7.914 0 4.894-3.67 8.42-7.052 11.37-6.764 5.9-12.592 11.08-13.887 16.98v6.692z"/></g><g fill-rule="evenodd" style="overflow:scroll" transform="translate(1288.013)"><circle cx="46" cy="46" r="46" fill="#82c8e6"/><path d="M35.735 71.652V20.853h-8.85c-2.303 1.8-7.771 5.181-13.672 7.987l-3.093 1.44 3.453 7.77 2.663-1.367c1.87-.936 6.979-3.598 8.706-4.965v39.934zM77.21 56.614c0-7.124-4.245-11.297-9.858-12.376v-.144c5.397-2.015 8.203-6.044 8.203-11.296 0-6.764-5.9-12.808-16.262-12.808-5.972 0-10.864 1.655-15.253 4.532l3.525 7.484c1.656-1.44 4.75-3.67 9.426-3.67 5.324 0 7.77 2.807 7.77 6.044 0 3.886-3.093 6.332-8.058 6.332H51.38v8.419h5.252c5.181 0 9.642 1.871 9.642 7.698 0 4.318-3.67 7.484-9.57 7.484-4.316 0-7.843-1.655-10.002-3.31l-3.885 7.843c4.102 2.302 8.059 3.813 14.607 3.813 11.8 0 19.787-7.123 19.787-16.045"/></g><g fill-rule="evenodd" transform="translate(1380.015)"><circle cx="46" cy="46" r="46" fill="#640082"/><path fill="#fff" d="M79.691 61.075V53.16h-6.26V20.854h-12.95L40.765 51.649v9.426h22.88v10.577h9.786V61.075ZM63.647 53.16H49.473L59.834 36.9c2.014-3.167 3.453-6.26 3.668-7.124h.145ZM35.195 71.652V20.853h-8.85c-2.302 1.8-7.77 5.181-13.671 7.987L9.58 30.28l3.454 7.77 2.662-1.366c1.87-.936 6.98-3.598 8.706-4.965v39.933z"/></g></svg>