<?xml version="1.0" encoding="UTF-8" standalone="no"?>
<!-- Generator: Adobe Illustrator 21.0.2, SVG Export Plug-In . SVG Version: 6.00 Build 0) -->

<svg
   version="1.2"
   id="Premier_plan"
   x="0px"
   y="0px"
   viewBox="0 0 1472 92"
   overflow="scroll"
   xml:space="preserve"
   sodipodi:docname="lignes.svg"
   width="1472"
   height="92"
   inkscape:version="1.4.3 (0d15f75042, 2025-12-25)"
   xmlns:inkscape="http://www.inkscape.org/namespaces/inkscape"
   xmlns:sodipodi="http://sodipodi.sourceforge.net/DTD/sodipodi-0.dtd"
   xmlns="http://www.w3.org/2000/svg"
   xmlns:svg="http://www.w3.org/2000/svg"><defs
     id="defs2" /><sodipodi:namedview
     id="namedview2"
     pagecolor="#ffffff"
     bordercolor="#666666"
     borderopacity="1.0"
     inkscape:showpageshadow="2"
     inkscape:pageopacity="0.0"
     inkscape:pagecheckerboard="0"
     inkscape:deskcolor="#d1d1d1"
     inkscape:zoom="0.7926129"
     inkscape:cx="420.76025"
     inkscape:cy="176.00016"
     inkscape:window-width="1920"
     inkscape:window-height="1014"
     inkscape:window-x="1920"
     inkscape:window-y="0"
     inkscape:window-maximized="1"
     inkscape:current-layer="Premier_plan" /><g
     id="g2"
     transform="translate(-0.01474206)"><g
       id="g1"><circle
         fill-rule="evenodd"
         fill="#ffbe00"
         cx="46"
         cy="46"
         r="46"
         id="circle1" /><path
         fill-rule="evenodd"
         d="M 54.291,71.658203 V 20.8594 h -8.850101 c -2.3022,1.798799 -7.7705,5.180601 -13.670898,7.986299 L 28.6758,30.2852 l 3.454102,7.771399 2.662098,-1.3671 c 1.870602,-0.9356 6.9795,-3.597698 8.706501,-4.964899 V 71.658201 H 54.291 Z"
         id="path1" /></g></g><g
     style="overflow:scroll"
     id="g3"
     transform="translate(91.987259)"><g
       id="g1-3"><circle
         fill-rule="evenodd"
         fill="#0055c8"
         cx="46"
         cy="46"
         r="46"
         id="circle1-5" /><path
         fill-rule="evenodd"
         fill="#ffffff"
         d="M 62.608398,71.658203 V 63.167999 H 41.669899 c 0.648003,-2.950199 5.755901,-7.195301 8.346703,-9.570301 6.116199,-5.5401 11.656299,-9.497097 11.656299,-18.204098 0,-10.3614 -8.419002,-15.397501 -17.340401,-15.397501 -6.835899,0 -11.369098,2.014601 -16.261699,6.2598 l 5.324699,7.051699 c 1.223198,-1.367199 4.316898,-4.605497 8.778301,-4.605497 5.5401,0 8.418,3.5254 8.418,7.915098 0,4.892601 -3.669899,8.418899 -7.050801,11.368202 C 36.777302,53.8857 30.9492,59.066399 29.653799,64.966797 v 6.691406 z"
         id="path1-6" /></g></g><g
     style="overflow:scroll"
     id="g4"
     transform="translate(183.98926)"><g
       id="g1-7"><circle
         fill-rule="evenodd"
         fill="#6e6e00"
         cx="46"
         cy="46"
         r="46"
         id="circle1-0" /><path
         fill-rule="evenodd"
         fill="#ffffff"
         d="m 62.890598,56.620098 c 0,-7.122997 -4.244098,-11.296898 -9.857399,-12.375999 v -0.143498 c 5.3965,-2.014702 8.203102,-6.044002 8.203102,-11.296902 0,-6.763698 -5.900402,-12.8076 -16.261699,-12.8076 -5.971703,0 -10.864701,1.654301 -15.253401,4.533202 l 3.5254,7.482399 c 1.6548,-1.4385 4.749001,-3.6689 9.4258,-3.6689 5.3247,0 7.771,2.805599 7.771,6.0439 0,3.885799 -3.093799,6.332 -8.058601,6.332 h -5.3247 v 8.418 h 5.2524 c 5.180698,0 9.642601,1.871101 9.642601,7.699199 0,4.317402 -3.669903,7.483399 -9.570301,7.483399 -4.317398,0 -7.8428,-1.655197 -10.001499,-3.310498 L 28.4976,68.852501 c 4.101498,2.301796 8.058999,3.813499 14.6064,3.813499 11.800301,0 19.786598,-7.124 19.786598,-16.045902 z"
         id="path1-9" /></g></g><g
     style="overflow:scroll"
     id="g5"
     transform="translate(275.99126)"><g
       id="g4-6"><circle
         fill-rule="evenodd"
         fill="#82c8e6"
         cx="46"
         cy="46"
         r="46"
         id="circle1-06" /><path
         fill-rule="evenodd"
         d="m 63.205101,53.107399 c 0,-3.537098 -1.589901,-7.541 -5.429703,-7.541 -1.8643,0 -2.988296,0.9873 -3.975597,2.413101 v -7.650399 h -3.8662 v 20.292 h 3.728501 V 59.8535 c 0.7402,0.685601 2.029297,1.124001 3.126999,1.124001 4.6884,0 6.416,-4.579102 6.416,-7.870102 z m -4.0313,0.548801 c 0,2.001 -0.547802,4.579201 -3.015602,4.579201 -1.755897,0 -2.358398,-0.9053 -2.358398,-1.919002 v -4.798798 c 0,-0.850601 0.082,-1.2617 0.7402,-1.892601 0.411198,-0.411099 1.014698,-0.7402 1.782299,-0.7402 2.440399,0 2.851501,2.796799 2.851501,4.7714 z"
         id="path1-2" /><path
         fill-rule="evenodd"
         d="m 70.741203,42.084 c 0,-1.1787 -0.823204,-2.029301 -2.138702,-2.029301 -1.316399,0 -2.166001,0.850601 -2.166001,2.029301 0,1.179698 0.849602,2.0293 2.166001,2.0293 1.315498,0 2.138702,-0.849601 2.138702,-2.0293 z M 70.5215,60.621101 V 45.9785 h -3.865197 v 14.642601 z"
         id="path2" /><path
         fill-rule="evenodd"
         d="m 84.298798,56.233398 c 0,-2.220699 -1.288994,-3.4277 -3.262696,-4.167999 L 79.253899,51.4072 c -0.932602,-0.329102 -1.535096,-0.685501 -1.535096,-1.453099 0,-0.877903 0.740197,-1.398403 2.028298,-1.398403 0.932602,0 2.112297,0.329102 2.961899,0.877903 l 1.178703,-2.825203 c -0.767601,-0.383796 -2.110405,-0.958999 -3.948204,-0.958999 -3.427796,0 -5.758797,2.166 -5.758797,4.9356 0,1.727501 0.850601,3.071201 2.934494,3.8662 l 1.726601,0.658203 c 0.7686,0.301697 1.865204,0.603496 1.865204,1.618099 0,1.151398 -1.234299,1.480499 -2.248001,1.480499 -1.152398,0 -2.496102,-0.438499 -3.427697,-1.096699 L 73.851601,59.9902 c 0.822197,0.493198 2.468696,1.1241 4.304702,1.1241 3.839798,0 6.142495,-2.029301 6.142495,-4.880902 z"
         id="path3" /><path
         fill-rule="evenodd"
         d="m 43.440578,56.127399 c 0,-6.545005 -3.899711,-10.380214 -9.057521,-11.371749 v -0.131855 c 4.958603,-1.85122 7.53746,-5.553563 7.53746,-10.380215 0,-6.214859 -5.421612,-11.768326 -14.942143,-11.768326 -5.487127,0 -9.983083,1.520062 -14.015663,4.165352 l 3.239331,6.87524 c 1.520521,-1.321773 4.363643,-3.371185 8.660944,-3.371185 4.892627,0 7.140421,2.577938 7.140421,5.553467 0,3.570488 -2.842753,5.818191 -7.404685,5.818191 h -4.892625 v 7.734921 h 4.826193 c 4.760313,0 8.860151,1.719269 8.860151,7.074447 0,3.967064 -3.372107,6.87616 -8.793718,6.87616 -3.967064,0 -7.206397,-1.520889 -9.189929,-3.04187 L 11.8384,67.367203 c 3.768683,2.115021 7.405052,3.504051 13.421164,3.504051 10.842765,0 18.181014,-6.545921 18.181014,-14.743855 z"
         id="path4" /></g></g><g
     style="overflow:scroll"
     id="g6"
     transform="translate(367.99326)"><g
       id="g1-9"><circle
         fill-rule="evenodd"
         fill="#a0006e"
         cx="46"
         cy="46"
         r="46"
         id="circle1-2" /><path
         fill-rule="evenodd"
         fill="#ffffff"
         d="M 62.4463,61.0811 V 53.167 H 56.1865 V 20.8594 H 43.234402 L 23.519501,51.6553 v 9.4258 H 46.400398 V 71.658203 H 56.1865 V 61.0811 Z M 46.400398,53.167 H 32.225601 L 42.586899,36.9053 c 2.015201,-3.166 3.453602,-6.2598 3.669903,-7.1231 h 0.143596 z"
         id="path1-0" /></g></g><g
     style="overflow:scroll"
     id="g7"
     transform="translate(459.99526)"><g
       id="g1-92"><circle
         fill-rule="evenodd"
         fill="#ff5a00"
         cx="46"
         cy="46"
         r="46"
         id="circle1-28" /><path
         fill-rule="evenodd"
         d="m 63.289101,55.4463 c 0,-7.626998 -5.611401,-15.326202 -19.4991,-16.045902 l -1.4389,-0.0713 0.7192,-9.713901 H 61.346699 V 21.1963 H 34.651901 l -2.014702,26.4072 7.915001,0.0713 c 9.3541,0.0723 11.800301,5.109398 11.800301,8.778297 0,5.972702 -4.964802,8.203099 -8.922302,8.203099 -4.317398,0 -7.195297,-1.582997 -9.641598,-3.238198 L 30.0469,69.333 c 3.957499,2.2305 8.562502,3.669899 13.959001,3.669899 11.583901,0 19.2832,-7.842697 19.2832,-17.556599 z"
         id="path1-97" /></g></g><g
     style="overflow:scroll"
     id="g8"
     transform="translate(551.99714,-1.2588501e-4)"><g
       id="g1-93"><circle
         fill-rule="evenodd"
         fill="#82dc73"
         cx="46"
         cy="46.000126"
         r="45.999874"
         id="circle1-1" /><path
         fill-rule="evenodd"
         d="m 63.452099,55.589802 c 0,-9.496102 -6.7636,-15.037602 -15.037998,-15.037602 -5.396,0 -8.634301,1.943402 -10.360901,3.453701 0.647998,-10.2173 5.900402,-15.325701 12.879398,-15.325701 2.878902,0 5.468803,0.6474 6.836002,1.222599 l 1.583,-8.6338 C 57.264599,20.7651 54.674801,20.4058 51.795898,20.4058 35.822799,20.4058 27.6919,32.493698 27.6919,50.123001 c 0,13.455097 4.892599,23.023499 18.564001,23.023499 10.432598,0 17.196198,-7.410202 17.196198,-17.556698 z m -10.144501,1.080097 c 0,4.388702 -2.518497,8.490303 -7.411598,8.490303 -5.036598,0 -7.771,-4.677803 -7.771,-9.4981 0,-1.5098 0,-3.453102 0.576199,-4.316403 1.006801,-1.583999 3.525402,-2.806598 6.619102,-2.806598 4.892597,0 7.987297,3.380798 7.987297,8.130798 z"
         id="path1-94" /></g></g><g
     style="overflow:scroll"
     id="g12"
     transform="translate(643.99901)"><g
       id="g1-4"><circle
         fill-rule="evenodd"
         fill="#ff82b4"
         cx="46"
         cy="46"
         r="46"
         id="circle1-7" /><path
         fill-rule="evenodd"
         d="M 64.830101,29.470699 V 21.1963 h -35.5445 v 8.4902 H 53.964802 L 41.589401,52.711899 c -4.461002,8.274402 -6.2598,12.591804 -6.2598,19.283203 h 11.5845 c 0,-7.986305 6.763599,-23.168903 17.916,-42.524403 z"
         id="path1-4" /></g></g><g
     style="overflow:scroll"
     id="g9"
     transform="translate(736.00101)"><g
       id="g4-4"><circle
         fill-rule="evenodd"
         fill="#82dc73"
         cx="46"
         cy="46"
         r="46"
         id="circle1-50" /><path
         fill-rule="evenodd"
         d="m 63.5303,53.107399 c 0,-3.537098 -1.590801,-7.541 -5.428699,-7.541 -1.8653,0 -2.9903,0.9873 -3.976601,2.413101 v -7.650399 h -3.867199 v 20.292 H 53.9883 V 59.8535 c 0.7402,0.685601 2.029301,1.124001 3.125,1.124001 4.6894,0 6.417,-4.579102 6.417,-7.870102 z M 59.499,53.6562 c 0,2.001 -0.547801,4.579201 -3.016601,4.579201 -1.753899,0 -2.357399,-0.9053 -2.357399,-1.919002 v -4.798798 c 0,-0.850601 0.082,-1.2617 0.7402,-1.892601 0.411201,-0.411099 1.014702,-0.7402 1.782299,-0.7402 2.440399,0 2.851501,2.796799 2.851501,4.7714 z"
         id="path1-3" /><path
         fill-rule="evenodd"
         d="m 71.066399,42.084 c 0,-1.1787 -0.822297,-2.029301 -2.138703,-2.029301 -1.316398,0 -2.165993,0.850601 -2.165993,2.029301 0,1.179698 0.849595,2.0293 2.165993,2.0293 1.316406,0 2.138703,-0.849601 2.138703,-2.0293 z M 70.847702,60.621101 V 45.9785 h -3.867203 v 14.642601 z"
         id="path2-6" /><path
         fill-rule="evenodd"
         d="M 45.320301,30.872101 C 34.345699,49.957001 28.8584,62.9814 28.8584,69.945297 H 18.2139 c 0,-2.909195 0.4409,-5.685493 1.3227,-8.330097 0.749001,-2.204102 2.225599,-5.333 4.429199,-9.388599 L 35.337398,31.070299 H 12.6606 v -7.800798 h 32.659702 v 7.6026 z"
         id="path3-1" /><path
         fill-rule="evenodd"
         d="m 84.624,56.233398 c 0,-2.220699 -1.288101,-3.4277 -3.262702,-4.167999 L 79.578102,51.4072 c -0.931602,-0.329102 -1.535103,-0.685501 -1.535103,-1.453099 0,-0.877903 0.740204,-1.398403 2.029305,-1.398403 0.932594,0 2.111297,0.329102 2.960899,0.877903 l 1.179695,-2.825203 c -0.767601,-0.383796 -2.111297,-0.958999 -3.949196,-0.958999 -3.427803,0 -5.757805,2.166 -5.757805,4.9356 0,1.727501 0.849602,3.071201 2.933602,3.8662 l 1.7285,0.658203 c 0.767502,0.301697 1.864205,0.603496 1.864205,1.618099 0,1.151398 -1.234307,1.480499 -2.249001,1.480499 -1.151405,0 -2.495102,-0.438499 -3.427704,-1.096699 L 74.176804,59.9902 c 0.823196,0.493198 2.467697,1.1241 4.305595,1.1241 3.837898,0 6.141601,-2.029301 6.141601,-4.880902 z"
         id="path4-0" /></g></g><g
     style="overflow:scroll"
     id="g10"
     transform="translate(828.00301)"><g
       id="g1-6"><circle
         fill-rule="evenodd"
         fill="#d282be"
         cx="46"
         cy="46"
         r="46"
         id="circle1-15" /><path
         fill-rule="evenodd"
         d="M 63.708,57.460899 C 63.708,50.769501 59.6064,46.7402 54.930698,44.5098 59.678699,41.630901 62.125,37.961899 62.125,33.212898 c 0,-8.706999 -7.411099,-13.095697 -16.333,-13.095697 -8.707001,0 -16.334,5.828098 -16.334,14.247099 0,5.251899 2.734402,8.346599 7.124001,11.080002 -4.8925,2.518596 -8.706501,6.475597 -8.706501,13.239299 0,7.699196 6.403801,14.462899 17.700699,14.462899 C 56.0088,73.1465 63.708,67.102501 63.708,57.460899 Z M 52.411099,33.860401 c 0,3.166001 -2.8769,6.1162 -5.538998,7.338799 -3.238301,-1.367199 -7.412102,-3.597599 -7.412102,-7.770501 0,-3.526399 2.518501,-5.972598 6.476502,-5.972598 4.172901,0 6.474598,2.878898 6.474598,6.4043 z m 0.791999,24.391598 c 0,4.029201 -2.662098,7.412102 -7.483398,7.412102 -4.892601,0 -7.6269,-3.958001 -7.6269,-8.131901 0,-3.957001 3.310501,-7.266602 6.620098,-8.561501 4.317402,2.1582 8.4902,4.6768 8.4902,9.2813 z"
         id="path1-5" /></g></g><g
     style="overflow:scroll"
     id="g11"
     transform="translate(920.00501)"><g
       id="g1-69"><circle
         fill-rule="evenodd"
         fill="#d2d200"
         cx="46"
         cy="46"
         r="46"
         id="circle1-3" /><path
         fill-rule="evenodd"
         d="m 27.7759,37.673801 c 0,9.498101 6.7637,15.038098 15.038599,15.038098 5.3964,0 8.633701,-1.942398 10.361301,-3.454098 C 52.527302,59.475601 47.275398,64.584 40.295399,64.584 c -2.8779,0 -5.4678,-0.647499 -6.8354,-1.222698 l -1.582998,8.6338 c 2.0869,0.503899 4.677198,0.864296 7.555097,0.864296 15.974202,0 24.105004,-12.088898 24.105004,-29.716797 0,-13.4561 -4.893501,-23.0254 -18.564404,-23.0254 -10.433098,0 -17.196798,7.411098 -17.196798,17.5566 z M 37.921398,36.5947 c 0,-4.389599 2.518501,-8.4912 7.411102,-8.4912 5.036599,0 7.771,4.6777 7.771,9.498101 0,1.511699 0,3.454097 -0.576198,4.317299 -1.006802,1.583099 -3.525303,2.806701 -6.619103,2.806701 -4.8931,0 -7.986801,-3.381901 -7.986801,-8.130901 z"
         id="path1-7" /></g></g><g
     style="overflow:scroll"
     id="g13"
     transform="translate(1012.007)"><g
       id="g2-0"><circle
         fill-rule="evenodd"
         fill="#dc9600"
         cx="46"
         cy="46"
         r="46"
         id="circle1-78" /><path
         fill-rule="evenodd"
         d="m 78.929703,46.3965 c 0,-11.728501 -3.0215,-26.550801 -18.347702,-26.550801 -15.326599,0 -18.6362,14.8223 -18.6362,26.550801 0,11.7285 3.021999,26.550804 18.348099,26.550804 15.326202,0 18.635803,-14.822304 18.635803,-26.550804 z m -11.008805,0 c 0,5.037101 -0.288101,18.060501 -7.483398,18.060501 -7.195297,0 -7.554699,-12.952099 -7.554699,-18.060501 0,-5.180699 0.215798,-17.988301 7.554699,-17.988301 7.267601,0 7.483398,12.664101 7.483398,17.988301 z"
         id="path1-68" /><path
         fill-rule="evenodd"
         d="M 35.512199,71.652298 V 20.8535 H 26.6616 c -2.3022,1.7988 -7.771,5.180701 -13.6709,7.9863 l -3.0937302,1.439501 3.4536302,7.7705 2.662099,-1.367203 C 17.8838,35.747101 22.992201,33.084999 24.7192,31.7178 v 39.934498 z"
         id="path2-8" /></g></g><g
     style="overflow:scroll"
     id="g14"
     transform="translate(1104.009)"><g
       id="g2-1"><circle
         fill-rule="evenodd"
         fill="#6e491e"
         cx="46"
         cy="46"
         r="46"
         id="circle1-4" /><path
         fill-rule="evenodd"
         fill="#ffffff"
         d="M 38.590801,71.652298 V 20.8535 H 29.7402 c -2.3022,1.7988 -7.7705,5.180701 -13.6709,7.9863 l -3.0942,1.439501 3.454099,7.7705 2.6621,-1.367203 C 20.961901,35.747101 26.070801,33.084999 27.7974,31.7178 v 39.934498 z"
         id="path1-92" /><path
         fill-rule="evenodd"
         fill="#ffffff"
         d="M 69.331101,71.652298 V 20.8535 h -8.850602 c -2.302799,1.7988 -7.7705,5.180701 -13.670898,7.9863 l -3.094299,1.439501 3.454597,7.7705 2.662102,-1.367203 c 1.870098,-0.935497 6.9785,-3.597599 8.705101,-4.964798 v 39.934498 z"
         id="path2-0" /></g></g><g
     style="overflow:scroll"
     id="g15"
     transform="translate(1196.011)"><g
       id="g2-9"><circle
         fill-rule="evenodd"
         fill="#00643c"
         cx="46"
         cy="46"
         r="46"
         id="circle1-26" /><path
         fill-rule="evenodd"
         fill="#ffffff"
         d="M 36.139599,71.652298 V 20.8535 H 27.289101 C 24.986799,22.6523 19.5186,26.034201 13.6182,28.8398 l -3.0938,1.439501 3.4536,7.7705 2.6626,-1.367203 c 1.8706,-0.935497 6.979,-3.597599 8.706101,-4.964798 v 39.934498 z"
         id="path1-64" /><path
         fill-rule="evenodd"
         fill="#ffffff"
         d="M 77.542999,71.652298 V 63.161099 H 56.6045 c 0.647499,-2.9492 5.755901,-7.195298 8.346702,-9.569298 C 71.066399,48.0518 76.607399,44.0937 76.607399,35.387699 76.607399,25.0264 68.1885,19.9902 59.266602,19.9902 c -6.835003,0 -11.368203,2.0147 -16.2612,6.2598 l 5.324699,7.0508 c 1.222599,-1.367201 4.316399,-4.6045 8.777298,-4.6045 5.541,0 8.418999,3.525399 8.418999,7.914101 0,4.893498 -3.668999,8.4189 -7.051796,11.369099 -6.763703,5.900402 -12.591301,11.081001 -13.8862,16.980499 v 6.692299 z"
         id="path2-9" /></g></g><g
     style="overflow:scroll"
     id="g16"
     transform="translate(1288.013)"><g
       id="g2-4"><circle
         fill-rule="evenodd"
         fill="#82c8e6"
         cx="46"
         cy="46"
         r="46"
         id="circle1-8" /><path
         fill-rule="evenodd"
         d="M 35.734901,71.652298 V 20.8535 H 26.8848 c -2.302799,1.7988 -7.771,5.180701 -13.6714,7.9863 l -3.0938,1.439501 3.4536,7.7705 2.6626,-1.367203 c 1.870599,-0.935497 6.979,-3.597599 8.7061,-4.964798 v 39.934498 z"
         id="path1-71" /><path
         fill-rule="evenodd"
         d="m 77.209999,56.6143 c 0,-7.1241 -4.245201,-11.296898 -9.858398,-12.376 v -0.1446 c 5.3974,-2.014598 8.203102,-6.043899 8.203102,-11.295799 0,-6.7637 -5.900406,-12.807701 -16.261704,-12.807701 -5.971698,0 -10.864299,1.654301 -15.253399,4.532299 l 3.525799,7.483402 c 1.6553,-1.439501 4.7491,-3.670002 9.4258,-3.670002 5.3242,0 7.770504,2.8067 7.770504,6.044003 0,3.885696 -3.093704,6.331997 -8.058605,6.331997 h -5.324199 v 8.419002 h 5.252002 c 5.181599,0 9.642498,1.871098 9.642498,7.6982 0,4.318398 -3.669899,7.483399 -9.570301,7.483399 -4.316398,0 -7.842697,-1.654301 -10.0019,-3.309601 l -3.8848,7.842804 c 4.101601,2.302696 8.058602,3.8135 14.606503,3.8135 11.799801,0 19.787098,-7.123101 19.787098,-16.044903 z"
         id="path2-7" /></g></g><g
     id="g2-2"
     transform="translate(1380.0149,-3.7384033e-4)"><circle
       fill-rule="evenodd"
       fill="#640082"
       cx="46"
       cy="46.000374"
       r="45.999874"
       id="circle1-261" /><path
       fill-rule="evenodd"
       fill="#ffffff"
       d="M 79.691399,61.075199 V 53.160198 H 73.431602 V 20.8535 H 60.480499 L 40.765598,51.649399 v 9.4258 H 63.6465 v 10.577099 h 9.785102 V 61.075199 Z M 63.6465,53.160198 H 49.472698 L 59.834,36.899399 C 61.847698,33.733398 63.287102,30.6392 63.501999,29.7759 H 63.6465 Z"
       id="path1-06" /><path
       fill-rule="evenodd"
       fill="#ffffff"
       d="M 35.195301,71.652298 V 20.8535 H 26.3447 c -2.3022,1.7988 -7.7705,5.180701 -13.670899,7.9868 l -3.093721,1.439001 3.45362,7.771 2.6621,-1.3667 c 1.8711,-0.9356 6.979501,-3.597702 8.7065,-4.964901 v 39.933598 z"
       id="path2-1" /></g></svg>
